<svg xmlns="http://www.w3.org/2000/svg" version="1.1" xmlns:xlink="http://www.w3.org/1999/xlink" xmlns:svgjs="http://svgjs.com/svgjs" width="2080" height="2080" preserveAspectRatio="none" viewBox="0 0 2080 2080"><g mask="url(&quot;#SvgjsMask1193&quot;)" fill="none"><rect width="2080" height="2080" x="0" y="0" fill="url(#SvgjsLinearGradient1194)"></rect><path d="M143.85 1735.15L143.85 1737.84L159.24 1737.84L159.24 1735.15zM154.47 1736.49 a4.77 4.77 0 1 0 9.54 0 a4.77 4.77 0 1 0 -9.54 0zM140.45 1754.92L139.42 1757.41L150.52 1762L151.55 1759.52zM146.27 1760.76 a4.77 4.77 0 1 0 9.54 0 a4.77 4.77 0 1 0 -9.54 0zM129.75 1771.89L127.85 1773.79L136.47 1782.42L138.38 1780.51zM132.65 1781.47 a4.77 4.77 0 1 0 9.54 0 a4.77 4.77 0 1 0 -9.54 0zM113.37 1783.47L110.88 1784.5L114.57 1793.41L117.06 1792.38zM111.04 1792.9 a4.77 4.77 0 1 0 9.54 0 a4.77 4.77 0 1 0 -9.54 0zM93.8 1787.89L91.11 1787.89L91.11 1804.22L93.8 1804.22zM87.68 1804.22 a4.77 4.77 0 1 0 9.54 0 a4.77 4.77 0 1 0 -9.54 0zM74.03 1784.5L71.54 1783.47L66.11 1796.58L68.6 1797.61zM62.58 1797.09 a4.77 4.77 0 1 0 9.54 0 a4.77 4.77 0 1 0 -9.54 0zM57.06 1773.79L55.16 1771.89L47.79 1779.26L49.69 1781.16zM43.97 1780.21 a4.77 4.77 0 1 0 9.54 0 a4.77 4.77 0 1 0 -9.54 0zM45.48 1757.41L44.45 1754.92L28.51 1761.52L29.54 1764.01zM24.26 1762.77 a4.77 4.77 0 1 0 9.54 0 a4.77 4.77 0 1 0 -9.54 0zM41.05 1737.84L41.05 1735.15L19.57 1735.15L19.57 1737.84zM14.8 1736.49 a4.77 4.77 0 1 0 9.54 0 a4.77 4.77 0 1 0 -9.54 0zM44.45 1718.07L45.48 1715.58L35.17 1711.31L34.14 1713.8zM29.88 1712.55 a4.77 4.77 0 1 0 9.54 0 a4.77 4.77 0 1 0 -9.54 0zM55.16 1701.1L57.06 1699.2L46.08 1688.22L44.18 1690.13zM40.36 1689.17 a4.77 4.77 0 1 0 9.54 0 a4.77 4.77 0 1 0 -9.54 0zM71.54 1689.52L74.03 1688.49L67.73 1673.29L65.24 1674.32zM61.72 1673.81 a4.77 4.77 0 1 0 9.54 0 a4.77 4.77 0 1 0 -9.54 0zM91.11 1685.09L93.8 1685.09L93.8 1667.62L91.11 1667.62zM87.68 1667.62 a4.77 4.77 0 1 0 9.54 0 a4.77 4.77 0 1 0 -9.54 0zM110.88 1688.49L113.37 1689.52L121.09 1670.87L118.6 1669.84zM115.08 1670.35 a4.77 4.77 0 1 0 9.54 0 a4.77 4.77 0 1 0 -9.54 0zM127.85 1699.2L129.75 1701.1L145.43 1685.42L143.53 1683.51zM139.71 1684.47 a4.77 4.77 0 1 0 9.54 0 a4.77 4.77 0 1 0 -9.54 0zM139.42 1715.58L140.45 1718.07L147.97 1714.95L146.94 1712.47zM142.69 1713.71 a4.77 4.77 0 1 0 9.54 0 a4.77 4.77 0 1 0 -9.54 0zM41.03 1736.49 a51.42 51.42 0 1 0 102.84 0 a51.42 51.42 0 1 0 -102.84 0z" fill="rgba(218, 37, 37, 0.35)"></path><path d="M58.05 1698.28 A50.4176 50.4176 0 0 1 142.72 1725.7M142.72 1725.7 A102.8352 102.8352 0 0 0 58.05 1698.28" fill="rgba(174, 30, 30, 0.35)" fill-rule="nonzero"></path><path d="M124.59 1701.44 a2.06 2.06 0 1 0 4.12 0 a2.06 2.06 0 1 0 -4.12 0zM67.57 1707.11 a10.28 10.28 0 1 0 20.56 0 a10.28 10.28 0 1 0 -20.56 0zM99.83 1745.02 a10.28 10.28 0 1 0 20.56 0 a10.28 10.28 0 1 0 -20.56 0zM75.38 1776.79 a10.28 10.28 0 1 0 20.56 0 a10.28 10.28 0 1 0 -20.56 0zM136.89 1724.02 a2.57 2.57 0 1 0 5.14 0 a2.57 2.57 0 1 0 -5.14 0zM82.3 1741.88 a3.6 3.6 0 1 0 7.2 0 a3.6 3.6 0 1 0 -7.2 0zM41.58 1739.79 a10.28 10.28 0 1 0 20.56 0 a10.28 10.28 0 1 0 -20.56 0zM92.02 1690.17 a4.63 4.63 0 1 0 9.26 0 a4.63 4.63 0 1 0 -9.26 0zM97.98 1720.89 a4.63 4.63 0 1 0 9.26 0 a4.63 4.63 0 1 0 -9.26 0zM47.06 1714.29 a4.11 4.11 0 1 0 8.22 0 a4.11 4.11 0 1 0 -8.22 0z" fill="rgba(174, 30, 30, 0.35)" fill-rule="nonzero"></path><path d="M1862.83 260.09L1862.83 265.47L1901.92 265.47L1901.92 260.09zM1892.39 262.78 a9.53 9.53 0 1 0 19.06 0 a9.53 9.53 0 1 0 -19.06 0zM1856.03 299.63L1853.97 304.61L1890.25 319.63L1892.31 314.66zM1881.75 317.15 a9.53 9.53 0 1 0 19.06 0 a9.53 9.53 0 1 0 -19.06 0zM1834.62 333.57L1830.82 337.38L1861.62 368.18L1865.42 364.37zM1853.99 366.27 a9.53 9.53 0 1 0 19.06 0 a9.53 9.53 0 1 0 -19.06 0zM1801.86 356.73L1796.88 358.79L1812.36 396.16L1817.34 394.1zM1805.32 395.13 a9.53 9.53 0 1 0 19.06 0 a9.53 9.53 0 1 0 -19.06 0zM1762.72 365.58L1757.34 365.58L1757.34 392.16L1762.72 392.16zM1750.5 392.16 a9.53 9.53 0 1 0 19.06 0 a9.53 9.53 0 1 0 -19.06 0zM1723.18 358.79L1718.2 356.73L1699.43 402.04L1704.41 404.1zM1692.39 403.07 a9.53 9.53 0 1 0 19.06 0 a9.53 9.53 0 1 0 -19.06 0zM1689.24 337.38L1685.43 333.57L1666.56 352.44L1670.37 356.25zM1658.94 354.34 a9.53 9.53 0 1 0 19.06 0 a9.53 9.53 0 1 0 -19.06 0zM1666.08 304.61L1664.02 299.63L1621.09 317.42L1623.15 322.39zM1612.59 319.9 a9.53 9.53 0 1 0 19.06 0 a9.53 9.53 0 1 0 -19.06 0zM1657.23 265.47L1657.23 260.09L1630.56 260.09L1630.56 265.47zM1621.03 262.78 a9.53 9.53 0 1 0 19.06 0 a9.53 9.53 0 1 0 -19.06 0zM1664.02 225.93L1666.08 220.95L1640.11 210.2L1638.05 215.17zM1629.55 212.68 a9.53 9.53 0 1 0 19.06 0 a9.53 9.53 0 1 0 -19.06 0zM1685.43 191.99L1689.24 188.19L1654.54 153.48L1650.73 157.29zM1643.1 155.39 a9.53 9.53 0 1 0 19.06 0 a9.53 9.53 0 1 0 -19.06 0zM1718.2 168.84L1723.18 166.78L1711.37 138.27L1706.39 140.33zM1699.35 139.3 a9.53 9.53 0 1 0 19.06 0 a9.53 9.53 0 1 0 -19.06 0zM1757.34 159.98L1762.72 159.98L1762.72 124.14L1757.34 124.14zM1750.5 124.14 a9.53 9.53 0 1 0 19.06 0 a9.53 9.53 0 1 0 -19.06 0zM1796.88 166.78L1801.86 168.84L1808.17 153.59L1803.2 151.53zM1796.15 152.56 a9.53 9.53 0 1 0 19.06 0 a9.53 9.53 0 1 0 -19.06 0zM1830.82 188.19L1834.62 191.99L1853.45 173.17L1849.64 169.36zM1842.01 171.27 a9.53 9.53 0 1 0 19.06 0 a9.53 9.53 0 1 0 -19.06 0zM1853.97 220.95L1856.03 225.93L1875.86 217.72L1873.8 212.74zM1865.3 215.23 a9.53 9.53 0 1 0 19.06 0 a9.53 9.53 0 1 0 -19.06 0zM1657.19 262.78 a102.84 102.84 0 1 0 205.68 0 a102.84 102.84 0 1 0 -205.68 0z" fill="rgba(218, 37, 37, 0.35)"></path><path d="M1849.66 212.38 A101.8352 101.8352 0 0 1 1759.08 365.61M1759.08 365.61 A205.6704 205.6704 0 0 0 1849.66 212.38" fill="rgba(174, 30, 30, 0.35)" fill-rule="nonzero"></path><path d="M1679.43 248.64 a20.57 20.57 0 1 0 41.14 0 a20.57 20.57 0 1 0 -41.14 0zM1734.72 321.41 a20.57 20.57 0 1 0 41.14 0 a20.57 20.57 0 1 0 -41.14 0zM1739.44 233.89 a10.28 10.28 0 1 0 20.56 0 a10.28 10.28 0 1 0 -20.56 0zM1789.66 262.8 a20.57 20.57 0 1 0 41.14 0 a20.57 20.57 0 1 0 -41.14 0zM1693.37 322.51 a10.28 10.28 0 1 0 20.56 0 a10.28 10.28 0 1 0 -20.56 0zM1802.63 330.19 a14.4 14.4 0 1 0 28.8 0 a14.4 14.4 0 1 0 -28.8 0zM1700.69 202.51 a5.14 5.14 0 1 0 10.28 0 a5.14 5.14 0 1 0 -10.28 0zM1793.37 217.41 a5.14 5.14 0 1 0 10.28 0 a5.14 5.14 0 1 0 -10.28 0zM1821.16 189.79 a4.11 4.11 0 1 0 8.22 0 a4.11 4.11 0 1 0 -8.22 0zM1740.19 270.61 a5.14 5.14 0 1 0 10.28 0 a5.14 5.14 0 1 0 -10.28 0z" fill="rgba(174, 30, 30, 0.35)" fill-rule="nonzero"></path><path d="M1234.75 960.29L1234.75 965.68L1267.86 965.68L1267.86 960.29zM1258.33 962.99 a9.53 9.53 0 1 0 19.06 0 a9.53 9.53 0 1 0 -19.06 0zM1227.95 999.84L1225.89 1004.81L1251.91 1015.59L1253.97 1010.61zM1243.41 1013.1 a9.53 9.53 0 1 0 19.06 0 a9.53 9.53 0 1 0 -19.06 0zM1206.54 1033.77L1202.73 1037.58L1215.62 1050.47L1219.43 1046.66zM1208 1048.57 a9.53 9.53 0 1 0 19.06 0 a9.53 9.53 0 1 0 -19.06 0zM1173.77 1056.93L1168.8 1058.99L1176.81 1078.34L1181.79 1076.28zM1169.77 1077.31 a9.53 9.53 0 1 0 19.06 0 a9.53 9.53 0 1 0 -19.06 0zM1134.64 1065.79L1129.26 1065.79L1129.26 1104.93L1134.64 1104.93zM1122.42 1104.93 a9.53 9.53 0 1 0 19.06 0 a9.53 9.53 0 1 0 -19.06 0zM1095.09 1058.99L1090.12 1056.93L1084.38 1070.8L1089.35 1072.86zM1077.33 1071.83 a9.53 9.53 0 1 0 19.06 0 a9.53 9.53 0 1 0 -19.06 0zM1061.16 1037.58L1057.35 1033.77L1033.02 1058.1L1036.83 1061.91zM1025.4 1060.01 a9.53 9.53 0 1 0 19.06 0 a9.53 9.53 0 1 0 -19.06 0zM1038 1004.81L1035.94 999.84L996.3 1016.26L998.36 1021.23zM987.8 1018.75 a9.53 9.53 0 1 0 19.06 0 a9.53 9.53 0 1 0 -19.06 0zM1029.15 965.68L1029.15 960.29L992.28 960.29L992.28 965.68zM982.75 962.99 a9.53 9.53 0 1 0 19.06 0 a9.53 9.53 0 1 0 -19.06 0zM1035.94 926.13L1038 921.16L1009.1 909.19L1007.04 914.16zM998.54 911.68 a9.53 9.53 0 1 0 19.06 0 a9.53 9.53 0 1 0 -19.06 0zM1057.35 892.2L1061.16 888.39L1046.78 874.02L1042.98 877.82zM1035.35 875.92 a9.53 9.53 0 1 0 19.06 0 a9.53 9.53 0 1 0 -19.06 0zM1090.12 869.04L1095.09 866.98L1076.63 822.41L1071.66 824.47zM1064.62 823.44 a9.53 9.53 0 1 0 19.06 0 a9.53 9.53 0 1 0 -19.06 0zM1129.26 860.19L1134.64 860.19L1134.64 820.3L1129.26 820.3zM1122.42 820.3 a9.53 9.53 0 1 0 19.06 0 a9.53 9.53 0 1 0 -19.06 0zM1168.8 866.98L1173.77 869.04L1187.8 835.17L1182.83 833.11zM1175.79 834.14 a9.53 9.53 0 1 0 19.06 0 a9.53 9.53 0 1 0 -19.06 0zM1202.73 888.39L1206.54 892.2L1233.33 865.41L1229.53 861.6zM1221.9 863.5 a9.53 9.53 0 1 0 19.06 0 a9.53 9.53 0 1 0 -19.06 0zM1225.89 921.16L1227.95 926.13L1264.12 911.15L1262.06 906.18zM1253.56 908.66 a9.53 9.53 0 1 0 19.06 0 a9.53 9.53 0 1 0 -19.06 0zM1029.11 962.99 a102.84 102.84 0 1 0 205.68 0 a102.84 102.84 0 1 0 -205.68 0z" fill="rgba(218, 37, 37, 0.35)"></path><path d="M1099.13 1060.44 A101.8352 101.8352 0 0 1 1063.79 885.98M1063.79 885.98 A205.6704 205.6704 0 0 0 1099.13 1060.44" fill="rgba(174, 30, 30, 0.35)" fill-rule="nonzero"></path><path d="M1157.66 964.53 a20.57 20.57 0 1 0 41.14 0 a20.57 20.57 0 1 0 -41.14 0zM1219.87 960 a5.14 5.14 0 1 0 10.28 0 a5.14 5.14 0 1 0 -10.28 0zM1119.01 1056.88 a8.23 8.23 0 1 0 16.46 0 a8.23 8.23 0 1 0 -16.46 0zM1078.77 962.74 a20.57 20.57 0 1 0 41.14 0 a20.57 20.57 0 1 0 -41.14 0zM1114.1 879.48 a18.51 18.51 0 1 0 37.02 0 a18.51 18.51 0 1 0 -37.02 0zM1056.77 1017.93 a18.51 18.51 0 1 0 37.02 0 a18.51 18.51 0 1 0 -37.02 0zM1197.56 910.72 a10.28 10.28 0 1 0 20.56 0 a10.28 10.28 0 1 0 -20.56 0zM1087.31 899.19 a5.14 5.14 0 1 0 10.28 0 a5.14 5.14 0 1 0 -10.28 0zM1135.14 941.2 a4.11 4.11 0 1 0 8.22 0 a4.11 4.11 0 1 0 -8.22 0zM1048.7 971.79 a5.14 5.14 0 1 0 10.28 0 a5.14 5.14 0 1 0 -10.28 0z" fill="rgba(174, 30, 30, 0.35)" fill-rule="nonzero"></path><path d="M226.41 84.58L226.41 87.27L248.26 87.27L248.26 84.58zM243.49 85.92 a4.77 4.77 0 1 0 9.54 0 a4.77 4.77 0 1 0 -9.54 0zM223.01 104.35L221.98 106.84L232.32 111.12L233.35 108.63zM228.07 109.88 a4.77 4.77 0 1 0 9.54 0 a4.77 4.77 0 1 0 -9.54 0zM212.31 121.32L210.41 123.22L227.24 140.06L229.15 138.15zM223.42 139.11 a4.77 4.77 0 1 0 9.54 0 a4.77 4.77 0 1 0 -9.54 0zM195.93 132.9L193.44 133.93L201.54 153.48L204.02 152.45zM198.01 152.96 a4.77 4.77 0 1 0 9.54 0 a4.77 4.77 0 1 0 -9.54 0zM176.36 137.32L173.67 137.32L173.67 160.11L176.36 160.11zM170.24 160.11 a4.77 4.77 0 1 0 9.54 0 a4.77 4.77 0 1 0 -9.54 0zM156.59 133.93L154.1 132.9L149.76 143.38L152.24 144.41zM146.23 143.9 a4.77 4.77 0 1 0 9.54 0 a4.77 4.77 0 1 0 -9.54 0zM139.62 123.22L137.72 121.32L123.62 135.41L125.53 137.31zM119.8 136.36 a4.77 4.77 0 1 0 9.54 0 a4.77 4.77 0 1 0 -9.54 0zM128.04 106.84L127.01 104.35L105.95 113.08L106.98 115.56zM101.69 114.32 a4.77 4.77 0 1 0 9.54 0 a4.77 4.77 0 1 0 -9.54 0zM123.61 87.27L123.61 84.58L102.92 84.58L102.92 87.27zM98.15 85.92 a4.77 4.77 0 1 0 9.54 0 a4.77 4.77 0 1 0 -9.54 0zM127.01 67.5L128.04 65.01L115.37 59.76L114.34 62.25zM110.09 61.01 a4.77 4.77 0 1 0 9.54 0 a4.77 4.77 0 1 0 -9.54 0zM137.72 50.53L139.62 48.63L123.57 32.58L121.66 34.48zM117.85 33.53 a4.77 4.77 0 1 0 9.54 0 a4.77 4.77 0 1 0 -9.54 0zM154.1 38.95L156.59 37.92L146.89 14.5L144.4 15.53zM140.87 15.02 a4.77 4.77 0 1 0 9.54 0 a4.77 4.77 0 1 0 -9.54 0zM173.67 34.52L176.36 34.52L176.36 26.34L173.67 26.34zM170.24 26.34 a4.77 4.77 0 1 0 9.54 0 a4.77 4.77 0 1 0 -9.54 0zM193.44 37.92L195.93 38.95L203.82 19.9L201.33 18.87zM197.8 19.39 a4.77 4.77 0 1 0 9.54 0 a4.77 4.77 0 1 0 -9.54 0zM210.41 48.63L212.31 50.53L216.83 46L214.93 44.1zM211.11 45.05 a4.77 4.77 0 1 0 9.54 0 a4.77 4.77 0 1 0 -9.54 0zM221.98 65.01L223.01 67.5L230.74 64.3L229.71 61.81zM225.45 63.05 a4.77 4.77 0 1 0 9.54 0 a4.77 4.77 0 1 0 -9.54 0zM123.59 85.92 a51.42 51.42 0 1 0 102.84 0 a51.42 51.42 0 1 0 -102.84 0z" fill="rgba(218, 37, 37, 0.35)"></path><path d="M206.06 126.91 A50.4176 50.4176 0 0 1 124.01 92.42M124.01 92.42 A102.8352 102.8352 0 0 0 206.06 126.91" fill="rgba(174, 30, 30, 0.35)" fill-rule="nonzero"></path><path d="M141.18 66.81 a10.28 10.28 0 1 0 20.56 0 a10.28 10.28 0 1 0 -20.56 0zM198.91 87.63 a10.28 10.28 0 1 0 20.56 0 a10.28 10.28 0 1 0 -20.56 0zM138.63 100.77 a10.28 10.28 0 1 0 20.56 0 a10.28 10.28 0 1 0 -20.56 0zM176.29 114.72 a10.28 10.28 0 1 0 20.56 0 a10.28 10.28 0 1 0 -20.56 0zM184.82 62.83 a8.74 8.74 0 1 0 17.48 0 a8.74 8.74 0 1 0 -17.48 0zM187.04 42.05 a2.06 2.06 0 1 0 4.12 0 a2.06 2.06 0 1 0 -4.12 0zM123.93 87.89 a2.57 2.57 0 1 0 5.14 0 a2.57 2.57 0 1 0 -5.14 0zM175.07 92.48 a3.09 3.09 0 1 0 6.18 0 a3.09 3.09 0 1 0 -6.18 0zM163.94 39.78 a4.63 4.63 0 1 0 9.26 0 a4.63 4.63 0 1 0 -9.26 0zM162.63 133.61 a2.57 2.57 0 1 0 5.14 0 a2.57 2.57 0 1 0 -5.14 0z" fill="rgba(174, 30, 30, 0.35)" fill-rule="nonzero"></path><path d="M1317.51 1604.94L1317.51 1610.33L1359.83 1610.33L1359.83 1604.94zM1350.3 1607.63 a9.53 9.53 0 1 0 19.06 0 a9.53 9.53 0 1 0 -19.06 0zM1310.71 1644.49L1308.65 1649.46L1336.35 1660.93L1338.41 1655.96zM1327.85 1658.45 a9.53 9.53 0 1 0 19.06 0 a9.53 9.53 0 1 0 -19.06 0zM1289.3 1678.42L1285.49 1682.23L1294.68 1691.41L1298.49 1687.61zM1287.05 1689.51 a9.53 9.53 0 1 0 19.06 0 a9.53 9.53 0 1 0 -19.06 0zM1256.53 1701.58L1251.56 1703.64L1262.14 1729.17L1267.11 1727.11zM1255.09 1728.14 a9.53 9.53 0 1 0 19.06 0 a9.53 9.53 0 1 0 -19.06 0zM1217.4 1710.43L1212.02 1710.43L1212.02 1751.62L1217.4 1751.62zM1205.18 1751.62 a9.53 9.53 0 1 0 19.06 0 a9.53 9.53 0 1 0 -19.06 0zM1177.85 1703.64L1172.88 1701.58L1154.06 1747.02L1159.03 1749.08zM1147.01 1748.05 a9.53 9.53 0 1 0 19.06 0 a9.53 9.53 0 1 0 -19.06 0zM1143.92 1682.23L1140.11 1678.42L1110.86 1707.67L1114.67 1711.48zM1103.23 1709.58 a9.53 9.53 0 1 0 19.06 0 a9.53 9.53 0 1 0 -19.06 0zM1120.76 1649.46L1118.7 1644.49L1089.06 1656.76L1091.13 1661.74zM1080.56 1659.25 a9.53 9.53 0 1 0 19.06 0 a9.53 9.53 0 1 0 -19.06 0zM1111.91 1610.33L1111.91 1604.94L1086.24 1604.94L1086.24 1610.33zM1076.71 1607.63 a9.53 9.53 0 1 0 19.06 0 a9.53 9.53 0 1 0 -19.06 0zM1118.7 1570.78L1120.76 1565.81L1105.31 1559.4L1103.25 1564.38zM1094.75 1561.89 a9.53 9.53 0 1 0 19.06 0 a9.53 9.53 0 1 0 -19.06 0zM1140.11 1536.85L1143.92 1533.04L1124.69 1513.81L1120.89 1517.62zM1113.26 1515.72 a9.53 9.53 0 1 0 19.06 0 a9.53 9.53 0 1 0 -19.06 0zM1172.88 1513.69L1177.85 1511.63L1172.54 1498.79L1167.56 1500.85zM1160.52 1499.82 a9.53 9.53 0 1 0 19.06 0 a9.53 9.53 0 1 0 -19.06 0zM1212.02 1504.83L1217.4 1504.83L1217.4 1487.16L1212.02 1487.16zM1205.18 1487.16 a9.53 9.53 0 1 0 19.06 0 a9.53 9.53 0 1 0 -19.06 0zM1251.56 1511.63L1256.53 1513.69L1262.59 1499.07L1257.61 1497.01zM1250.57 1498.04 a9.53 9.53 0 1 0 19.06 0 a9.53 9.53 0 1 0 -19.06 0zM1285.49 1533.04L1289.3 1536.85L1303.68 1522.46L1299.88 1518.66zM1292.25 1520.56 a9.53 9.53 0 1 0 19.06 0 a9.53 9.53 0 1 0 -19.06 0zM1308.65 1565.81L1310.71 1570.78L1340.34 1558.51L1338.28 1553.53zM1329.78 1556.02 a9.53 9.53 0 1 0 19.06 0 a9.53 9.53 0 1 0 -19.06 0zM1111.87 1607.63 a102.84 102.84 0 1 0 205.68 0 a102.84 102.84 0 1 0 -205.68 0z" fill="rgba(218, 37, 37, 0.35)"></path><path d="M1112.91 1593.06 A101.8352 101.8352 0 0 1 1278.06 1526.63M1278.06 1526.63 A205.6704 205.6704 0 0 0 1112.91 1593.06" fill="rgba(174, 30, 30, 0.35)" fill-rule="nonzero"></path><path d="M1195.28 1548.26 a20.57 20.57 0 1 0 41.14 0 a20.57 20.57 0 1 0 -41.14 0zM1255.76 1609.15 a20.57 20.57 0 1 0 41.14 0 a20.57 20.57 0 1 0 -41.14 0zM1133.22 1656.35 a20.57 20.57 0 1 0 41.14 0 a20.57 20.57 0 1 0 -41.14 0zM1148.38 1579.01 a17.48 17.48 0 1 0 34.96 0 a17.48 17.48 0 1 0 -34.96 0zM1287.57 1652.14 a4.11 4.11 0 1 0 8.22 0 a4.11 4.11 0 1 0 -8.22 0zM1212.59 1699.56 a10.28 10.28 0 1 0 20.56 0 a10.28 10.28 0 1 0 -20.56 0zM1256.49 1540.72 a12.34 12.34 0 1 0 24.68 0 a12.34 12.34 0 1 0 -24.68 0zM1112.83 1602.61 a6.17 6.17 0 1 0 12.34 0 a6.17 6.17 0 1 0 -12.34 0zM1253.09 1651.22 a4.11 4.11 0 1 0 8.22 0 a4.11 4.11 0 1 0 -8.22 0zM1205.37 1647.47 a13.37 13.37 0 1 0 26.74 0 a13.37 13.37 0 1 0 -26.74 0z" fill="rgba(174, 30, 30, 0.35)" fill-rule="nonzero"></path><path d="M152.58 1403.72L152.58 1406.41L173.2 1406.41L173.2 1403.72zM168.43 1405.06 a4.77 4.77 0 1 0 9.54 0 a4.77 4.77 0 1 0 -9.54 0zM149.19 1423.49L148.15 1425.98L157.96 1430.04L158.99 1427.55zM153.7 1428.79 a4.77 4.77 0 1 0 9.54 0 a4.77 4.77 0 1 0 -9.54 0zM138.48 1440.46L136.58 1442.36L151.5 1457.28L153.4 1455.38zM147.68 1456.33 a4.77 4.77 0 1 0 9.54 0 a4.77 4.77 0 1 0 -9.54 0zM122.1 1452.04L119.61 1453.07L122.9 1461L125.38 1459.97zM119.37 1460.49 a4.77 4.77 0 1 0 9.54 0 a4.77 4.77 0 1 0 -9.54 0zM102.53 1456.46L99.84 1456.46L99.84 1480.39L102.53 1480.39zM96.41 1480.39 a4.77 4.77 0 1 0 9.54 0 a4.77 4.77 0 1 0 -9.54 0zM82.76 1453.07L80.27 1452.04L77.74 1458.15L80.22 1459.18zM74.21 1458.67 a4.77 4.77 0 1 0 9.54 0 a4.77 4.77 0 1 0 -9.54 0zM65.79 1442.36L63.89 1440.46L52.44 1451.9L54.35 1453.8zM48.63 1452.85 a4.77 4.77 0 1 0 9.54 0 a4.77 4.77 0 1 0 -9.54 0zM54.21 1425.98L53.18 1423.49L35.24 1430.92L36.27 1433.41zM30.98 1432.16 a4.77 4.77 0 1 0 9.54 0 a4.77 4.77 0 1 0 -9.54 0zM49.78 1406.41L49.78 1403.72L29.21 1403.72L29.21 1406.41zM24.44 1405.06 a4.77 4.77 0 1 0 9.54 0 a4.77 4.77 0 1 0 -9.54 0zM53.18 1386.64L54.21 1384.15L30.72 1374.42L29.69 1376.91zM25.43 1375.66 a4.77 4.77 0 1 0 9.54 0 a4.77 4.77 0 1 0 -9.54 0zM63.89 1369.67L65.79 1367.77L59.6 1361.58L57.7 1363.48zM53.88 1362.53 a4.77 4.77 0 1 0 9.54 0 a4.77 4.77 0 1 0 -9.54 0zM80.27 1358.09L82.76 1357.06L77.56 1344.52L75.08 1345.55zM71.55 1345.04 a4.77 4.77 0 1 0 9.54 0 a4.77 4.77 0 1 0 -9.54 0zM99.84 1353.66L102.53 1353.66L102.53 1346.04L99.84 1346.04zM96.41 1346.04 a4.77 4.77 0 1 0 9.54 0 a4.77 4.77 0 1 0 -9.54 0zM119.61 1357.06L122.1 1358.09L126.08 1348.47L123.59 1347.44zM120.07 1347.96 a4.77 4.77 0 1 0 9.54 0 a4.77 4.77 0 1 0 -9.54 0zM136.58 1367.77L138.48 1369.67L151.64 1356.51L149.74 1354.61zM145.92 1355.56 a4.77 4.77 0 1 0 9.54 0 a4.77 4.77 0 1 0 -9.54 0zM148.15 1384.15L149.19 1386.64L160.22 1382.07L159.19 1379.58zM154.93 1380.82 a4.77 4.77 0 1 0 9.54 0 a4.77 4.77 0 1 0 -9.54 0zM49.76 1405.06 a51.42 51.42 0 1 0 102.84 0 a51.42 51.42 0 1 0 -102.84 0z" fill="rgba(218, 37, 37, 0.35)"></path><path d="M99.63 1353.67 A50.4176 50.4176 0 0 1 146.52 1429.32M146.52 1429.32 A102.8352 102.8352 0 0 0 99.63 1353.67" fill="rgba(174, 30, 30, 0.35)" fill-rule="nonzero"></path><path d="M107.46 1418.5 a10.28 10.28 0 1 0 20.56 0 a10.28 10.28 0 1 0 -20.56 0zM55.44 1399.67 a10.28 10.28 0 1 0 20.56 0 a10.28 10.28 0 1 0 -20.56 0zM86.79 1450.02 a5.14 5.14 0 1 0 10.28 0 a5.14 5.14 0 1 0 -10.28 0zM55.36 1427.44 a3.09 3.09 0 1 0 6.18 0 a3.09 3.09 0 1 0 -6.18 0zM138.59 1393.23 a6.17 6.17 0 1 0 12.34 0 a6.17 6.17 0 1 0 -12.34 0zM68.94 1371.84 a10.28 10.28 0 1 0 20.56 0 a10.28 10.28 0 1 0 -20.56 0zM116.98 1395.83 a2.06 2.06 0 1 0 4.12 0 a2.06 2.06 0 1 0 -4.12 0zM124.68 1440.28 a3.09 3.09 0 1 0 6.18 0 a3.09 3.09 0 1 0 -6.18 0zM114.87 1370.2 a9.26 9.26 0 1 0 18.52 0 a9.26 9.26 0 1 0 -18.52 0zM79.07 1417.57 a5.14 5.14 0 1 0 10.28 0 a5.14 5.14 0 1 0 -10.28 0z" fill="rgba(174, 30, 30, 0.35)" fill-rule="nonzero"></path><path d="M285.38 462.17L285.38 467.55L313.39 467.55L313.39 462.17zM303.86 464.86 a9.53 9.53 0 1 0 19.06 0 a9.53 9.53 0 1 0 -19.06 0zM278.58 501.71L276.52 506.69L309.84 520.49L311.9 515.51zM301.34 518 a9.53 9.53 0 1 0 19.06 0 a9.53 9.53 0 1 0 -19.06 0zM257.17 535.65L253.36 539.46L280.43 566.52L284.24 562.72zM272.8 564.62 a9.53 9.53 0 1 0 19.06 0 a9.53 9.53 0 1 0 -19.06 0zM224.4 558.81L219.43 560.87L233.51 594.87L238.49 592.81zM226.47 593.84 a9.53 9.53 0 1 0 19.06 0 a9.53 9.53 0 1 0 -19.06 0zM185.27 567.66L179.88 567.66L179.88 610.07L185.27 610.07zM173.05 610.07 a9.53 9.53 0 1 0 19.06 0 a9.53 9.53 0 1 0 -19.06 0zM145.72 560.87L140.75 558.81L132.28 579.25L137.25 581.31zM125.24 580.28 a9.53 9.53 0 1 0 19.06 0 a9.53 9.53 0 1 0 -19.06 0zM111.79 539.46L107.98 535.65L86.33 557.3L90.14 561.11zM78.7 559.2 a9.53 9.53 0 1 0 19.06 0 a9.53 9.53 0 1 0 -19.06 0zM88.63 506.69L86.57 501.71L56.06 514.35L58.12 519.33zM47.56 516.84 a9.53 9.53 0 1 0 19.06 0 a9.53 9.53 0 1 0 -19.06 0zM79.78 467.55L79.78 462.17L50.33 462.17L50.33 467.55zM40.8 464.86 a9.53 9.53 0 1 0 19.06 0 a9.53 9.53 0 1 0 -19.06 0zM86.57 428.01L88.63 423.04L62.68 412.29L60.62 417.26zM52.12 414.77 a9.53 9.53 0 1 0 19.06 0 a9.53 9.53 0 1 0 -19.06 0zM107.98 394.07L111.79 390.27L101.51 379.99L97.7 383.79zM90.07 381.89 a9.53 9.53 0 1 0 19.06 0 a9.53 9.53 0 1 0 -19.06 0zM140.75 370.92L145.72 368.86L140.86 357.11L135.88 359.17zM128.84 358.14 a9.53 9.53 0 1 0 19.06 0 a9.53 9.53 0 1 0 -19.06 0zM179.88 362.06L185.27 362.06L185.27 328.5L179.88 328.5zM173.05 328.5 a9.53 9.53 0 1 0 19.06 0 a9.53 9.53 0 1 0 -19.06 0zM219.43 368.86L224.4 370.92L242.91 326.25L237.93 324.19zM230.89 325.22 a9.53 9.53 0 1 0 19.06 0 a9.53 9.53 0 1 0 -19.06 0zM253.36 390.27L257.17 394.07L266.47 384.78L262.66 380.97zM255.03 382.87 a9.53 9.53 0 1 0 19.06 0 a9.53 9.53 0 1 0 -19.06 0zM276.52 423.04L278.58 428.01L303.77 417.58L301.71 412.6zM293.21 415.09 a9.53 9.53 0 1 0 19.06 0 a9.53 9.53 0 1 0 -19.06 0zM79.74 464.86 a102.84 102.84 0 1 0 205.68 0 a102.84 102.84 0 1 0 -205.68 0z" fill="rgba(218, 37, 37, 0.35)"></path><path d="M173.85 362.4 A101.8352 101.8352 0 0 1 275.77 508.34M275.77 508.34 A205.6704 205.6704 0 0 0 173.85 362.4" fill="rgba(174, 30, 30, 0.35)" fill-rule="nonzero"></path><path d="M179.57 519.5 a20.57 20.57 0 1 0 41.14 0 a20.57 20.57 0 1 0 -41.14 0zM223.99 451.87 a20.57 20.57 0 1 0 41.14 0 a20.57 20.57 0 1 0 -41.14 0zM97.22 458.31 a20.57 20.57 0 1 0 41.14 0 a20.57 20.57 0 1 0 -41.14 0zM263.44 510.46 a5.14 5.14 0 1 0 10.28 0 a5.14 5.14 0 1 0 -10.28 0zM151.83 378.85 a15.43 15.43 0 1 0 30.86 0 a15.43 15.43 0 1 0 -30.86 0zM200.69 395.23 a10.28 10.28 0 1 0 20.56 0 a10.28 10.28 0 1 0 -20.56 0zM144.04 525.31 a7.2 7.2 0 1 0 14.4 0 a7.2 7.2 0 1 0 -14.4 0zM90.94 509.65 a7.2 7.2 0 1 0 14.4 0 a7.2 7.2 0 1 0 -14.4 0zM150.62 417.26 a4.11 4.11 0 1 0 8.22 0 a4.11 4.11 0 1 0 -8.22 0zM253.31 406.49 a6.17 6.17 0 1 0 12.34 0 a6.17 6.17 0 1 0 -12.34 0z" fill="rgba(174, 30, 30, 0.35)" fill-rule="nonzero"></path><path d="M1843.09 1463.83L1843.09 1469.22L1887.64 1469.22L1887.64 1463.83zM1878.11 1466.53 a9.53 9.53 0 1 0 19.06 0 a9.53 9.53 0 1 0 -19.06 0zM1836.3 1503.38L1834.23 1508.35L1873.1 1524.45L1875.16 1519.48zM1864.6 1521.96 a9.53 9.53 0 1 0 19.06 0 a9.53 9.53 0 1 0 -19.06 0zM1814.88 1537.31L1811.08 1541.12L1835.27 1565.31L1839.07 1561.5zM1827.64 1563.41 a9.53 9.53 0 1 0 19.06 0 a9.53 9.53 0 1 0 -19.06 0zM1782.12 1560.47L1777.14 1562.53L1795.5 1606.84L1800.47 1604.78zM1788.45 1605.81 a9.53 9.53 0 1 0 19.06 0 a9.53 9.53 0 1 0 -19.06 0zM1742.98 1569.32L1737.6 1569.32L1737.6 1608.69L1742.98 1608.69zM1730.76 1608.69 a9.53 9.53 0 1 0 19.06 0 a9.53 9.53 0 1 0 -19.06 0zM1703.44 1562.53L1698.46 1560.47L1692.99 1573.69L1697.96 1575.75zM1685.94 1574.72 a9.53 9.53 0 1 0 19.06 0 a9.53 9.53 0 1 0 -19.06 0zM1669.5 1541.12L1665.7 1537.31L1635.47 1567.53L1639.28 1571.34zM1627.85 1569.44 a9.53 9.53 0 1 0 19.06 0 a9.53 9.53 0 1 0 -19.06 0zM1646.35 1508.35L1644.29 1503.38L1615.58 1515.27L1617.64 1520.24zM1607.08 1517.75 a9.53 9.53 0 1 0 19.06 0 a9.53 9.53 0 1 0 -19.06 0zM1637.49 1469.22L1637.49 1463.83L1611.8 1463.83L1611.8 1469.22zM1602.27 1466.53 a9.53 9.53 0 1 0 19.06 0 a9.53 9.53 0 1 0 -19.06 0zM1644.29 1429.67L1646.35 1424.7L1625.89 1416.23L1623.83 1421.2zM1615.33 1418.71 a9.53 9.53 0 1 0 19.06 0 a9.53 9.53 0 1 0 -19.06 0zM1665.7 1395.74L1669.5 1391.93L1635.9 1358.33L1632.09 1362.14zM1624.47 1360.23 a9.53 9.53 0 1 0 19.06 0 a9.53 9.53 0 1 0 -19.06 0zM1698.46 1372.58L1703.44 1370.52L1697.9 1357.16L1692.93 1359.22zM1685.89 1358.19 a9.53 9.53 0 1 0 19.06 0 a9.53 9.53 0 1 0 -19.06 0zM1737.6 1363.73L1742.98 1363.73L1742.98 1346.91L1737.6 1346.91zM1730.76 1346.91 a9.53 9.53 0 1 0 19.06 0 a9.53 9.53 0 1 0 -19.06 0zM1777.14 1370.52L1782.12 1372.58L1797.58 1335.25L1792.61 1333.19zM1785.56 1334.22 a9.53 9.53 0 1 0 19.06 0 a9.53 9.53 0 1 0 -19.06 0zM1811.08 1391.93L1814.88 1395.74L1837.36 1373.26L1833.56 1369.45zM1825.93 1371.36 a9.53 9.53 0 1 0 19.06 0 a9.53 9.53 0 1 0 -19.06 0zM1834.23 1424.7L1836.3 1429.67L1863.46 1418.42L1861.4 1413.45zM1852.9 1415.93 a9.53 9.53 0 1 0 19.06 0 a9.53 9.53 0 1 0 -19.06 0zM1637.45 1466.53 a102.84 102.84 0 1 0 205.68 0 a102.84 102.84 0 1 0 -205.68 0z" fill="rgba(218, 37, 37, 0.35)"></path><path d="M1826.54 1522.52 A101.8352 101.8352 0 0 1 1648.77 1513.42M1648.77 1513.42 A205.6704 205.6704 0 0 0 1826.54 1522.52" fill="rgba(174, 30, 30, 0.35)" fill-rule="nonzero"></path><path d="M1776.87 1471.31 a20.57 20.57 0 1 0 41.14 0 a20.57 20.57 0 1 0 -41.14 0zM1769.08 1535.35 a18.51 18.51 0 1 0 37.02 0 a18.51 18.51 0 1 0 -37.02 0zM1662.6 1511.17 a20.57 20.57 0 1 0 41.14 0 a20.57 20.57 0 1 0 -41.14 0zM1730.01 1464.34 a13.37 13.37 0 1 0 26.74 0 a13.37 13.37 0 1 0 -26.74 0zM1728.83 1525.44 a10.28 10.28 0 1 0 20.56 0 a10.28 10.28 0 1 0 -20.56 0zM1767.16 1400.68 a20.57 20.57 0 1 0 41.14 0 a20.57 20.57 0 1 0 -41.14 0zM1644.39 1440.35 a20.57 20.57 0 1 0 41.14 0 a20.57 20.57 0 1 0 -41.14 0zM1832.82 1446.38 a4.11 4.11 0 1 0 8.22 0 a4.11 4.11 0 1 0 -8.22 0zM1715.66 1560.63 a6.17 6.17 0 1 0 12.34 0 a6.17 6.17 0 1 0 -12.34 0zM1698.6 1412.71 a7.2 7.2 0 1 0 14.4 0 a7.2 7.2 0 1 0 -14.4 0z" fill="rgba(174, 30, 30, 0.35)" fill-rule="nonzero"></path><path d="M849.96 1835.39L849.96 1840.78L874.28 1840.78L874.28 1835.39zM864.75 1838.09 a9.53 9.53 0 1 0 19.06 0 a9.53 9.53 0 1 0 -19.06 0zM843.17 1874.94L841.11 1879.91L875.02 1893.96L877.08 1888.99zM866.52 1891.47 a9.53 9.53 0 1 0 19.06 0 a9.53 9.53 0 1 0 -19.06 0zM821.75 1908.87L817.95 1912.68L848.03 1942.76L851.83 1938.95zM840.4 1940.86 a9.53 9.53 0 1 0 19.06 0 a9.53 9.53 0 1 0 -19.06 0zM788.99 1932.03L784.01 1934.09L792.41 1954.35L797.38 1952.29zM785.36 1953.32 a9.53 9.53 0 1 0 19.06 0 a9.53 9.53 0 1 0 -19.06 0zM749.85 1940.89L744.47 1940.89L744.47 1976.08L749.85 1976.08zM737.63 1976.08 a9.53 9.53 0 1 0 19.06 0 a9.53 9.53 0 1 0 -19.06 0zM710.31 1934.09L705.33 1932.03L686.29 1978.01L691.26 1980.07zM679.24 1979.04 a9.53 9.53 0 1 0 19.06 0 a9.53 9.53 0 1 0 -19.06 0zM676.37 1912.68L672.57 1908.87L652.58 1928.86L656.38 1932.67zM644.95 1930.77 a9.53 9.53 0 1 0 19.06 0 a9.53 9.53 0 1 0 -19.06 0zM653.22 1879.91L651.16 1874.94L639.01 1879.97L641.07 1884.95zM630.51 1882.46 a9.53 9.53 0 1 0 19.06 0 a9.53 9.53 0 1 0 -19.06 0zM644.36 1840.78L644.36 1835.39L629.45 1835.39L629.45 1840.78zM619.92 1838.09 a9.53 9.53 0 1 0 19.06 0 a9.53 9.53 0 1 0 -19.06 0zM651.16 1801.23L653.22 1796.26L637.49 1789.75L635.43 1794.72zM626.93 1792.23 a9.53 9.53 0 1 0 19.06 0 a9.53 9.53 0 1 0 -19.06 0zM672.57 1767.3L676.37 1763.49L648.87 1735.99L645.07 1739.8zM637.44 1737.9 a9.53 9.53 0 1 0 19.06 0 a9.53 9.53 0 1 0 -19.06 0zM705.33 1744.14L710.31 1742.08L702.44 1723.08L697.46 1725.14zM690.42 1724.11 a9.53 9.53 0 1 0 19.06 0 a9.53 9.53 0 1 0 -19.06 0zM744.47 1735.29L749.85 1735.29L749.85 1699.83L744.47 1699.83zM737.63 1699.83 a9.53 9.53 0 1 0 19.06 0 a9.53 9.53 0 1 0 -19.06 0zM784.01 1742.08L788.99 1744.14L798.52 1721.12L793.55 1719.06zM786.51 1720.09 a9.53 9.53 0 1 0 19.06 0 a9.53 9.53 0 1 0 -19.06 0zM817.95 1763.49L821.75 1767.3L856.21 1732.84L852.4 1729.03zM844.78 1730.94 a9.53 9.53 0 1 0 19.06 0 a9.53 9.53 0 1 0 -19.06 0zM841.11 1796.26L843.17 1801.23L879.48 1786.19L877.42 1781.22zM868.92 1783.7 a9.53 9.53 0 1 0 19.06 0 a9.53 9.53 0 1 0 -19.06 0zM644.32 1838.09 a102.84 102.84 0 1 0 205.68 0 a102.84 102.84 0 1 0 -205.68 0z" fill="rgba(218, 37, 37, 0.35)"></path><path d="M842.87 1875.71 A101.8352 101.8352 0 0 1 666.86 1902.33M666.86 1902.33 A205.6704 205.6704 0 0 0 842.87 1875.71" fill="rgba(174, 30, 30, 0.35)" fill-rule="nonzero"></path><path d="M747.49 1744.87 a8.23 8.23 0 1 0 16.46 0 a8.23 8.23 0 1 0 -16.46 0zM688.63 1818.98 a20.57 20.57 0 1 0 41.14 0 a20.57 20.57 0 1 0 -41.14 0zM749.81 1779.54 a5.14 5.14 0 1 0 10.28 0 a5.14 5.14 0 1 0 -10.28 0zM672.22 1883.48 a20.57 20.57 0 1 0 41.14 0 a20.57 20.57 0 1 0 -41.14 0zM660.84 1801.09 a5.14 5.14 0 1 0 10.28 0 a5.14 5.14 0 1 0 -10.28 0zM772.95 1893.11 a20.57 20.57 0 1 0 41.14 0 a20.57 20.57 0 1 0 -41.14 0zM773.64 1839.99 a12.34 12.34 0 1 0 24.68 0 a12.34 12.34 0 1 0 -24.68 0zM726.88 1909.58 a4.11 4.11 0 1 0 8.22 0 a4.11 4.11 0 1 0 -8.22 0zM801.07 1770.05 a9.26 9.26 0 1 0 18.52 0 a9.26 9.26 0 1 0 -18.52 0zM818.04 1807.99 a13.37 13.37 0 1 0 26.74 0 a13.37 13.37 0 1 0 -26.74 0z" fill="rgba(174, 30, 30, 0.35)" fill-rule="nonzero"></path><path d="M1226.78 479.11L1226.78 484.49L1243.21 484.49L1243.21 479.11zM1233.68 481.8 a9.53 9.53 0 1 0 19.06 0 a9.53 9.53 0 1 0 -19.06 0zM1219.99 518.65L1217.93 523.63L1254.87 538.93L1256.93 533.96zM1246.37 536.44 a9.53 9.53 0 1 0 19.06 0 a9.53 9.53 0 1 0 -19.06 0zM1198.57 552.59L1194.77 556.4L1226.14 587.76L1229.94 583.96zM1218.51 585.86 a9.53 9.53 0 1 0 19.06 0 a9.53 9.53 0 1 0 -19.06 0zM1165.81 575.75L1160.83 577.81L1169.82 599.49L1174.79 597.43zM1162.77 598.46 a9.53 9.53 0 1 0 19.06 0 a9.53 9.53 0 1 0 -19.06 0zM1126.67 584.6L1121.29 584.6L1121.29 605.59L1126.67 605.59zM1114.45 605.59 a9.53 9.53 0 1 0 19.06 0 a9.53 9.53 0 1 0 -19.06 0zM1087.13 577.81L1082.15 575.75L1062.89 622.25L1067.86 624.31zM1055.85 623.28 a9.53 9.53 0 1 0 19.06 0 a9.53 9.53 0 1 0 -19.06 0zM1053.19 556.4L1049.39 552.59L1036.02 565.96L1039.82 569.77zM1028.39 567.86 a9.53 9.53 0 1 0 19.06 0 a9.53 9.53 0 1 0 -19.06 0zM1030.04 523.63L1027.98 518.65L981.09 538.08L983.15 543.05zM972.59 540.56 a9.53 9.53 0 1 0 19.06 0 a9.53 9.53 0 1 0 -19.06 0zM1021.18 484.49L1021.18 479.11L988.14 479.11L988.14 484.49zM978.61 481.8 a9.53 9.53 0 1 0 19.06 0 a9.53 9.53 0 1 0 -19.06 0zM1027.98 444.95L1030.04 439.97L983.43 420.67L981.37 425.64zM972.87 423.16 a9.53 9.53 0 1 0 19.06 0 a9.53 9.53 0 1 0 -19.06 0zM1049.39 411.01L1053.19 407.21L1038.05 392.07L1034.25 395.88zM1026.62 393.97 a9.53 9.53 0 1 0 19.06 0 a9.53 9.53 0 1 0 -19.06 0zM1082.15 387.86L1087.13 385.8L1076.8 360.86L1071.83 362.92zM1064.78 361.89 a9.53 9.53 0 1 0 19.06 0 a9.53 9.53 0 1 0 -19.06 0zM1121.29 379L1126.67 379L1126.67 346.95L1121.29 346.95zM1114.45 346.95 a9.53 9.53 0 1 0 19.06 0 a9.53 9.53 0 1 0 -19.06 0zM1160.83 385.8L1165.81 387.86L1175.37 364.78L1170.39 362.72zM1163.35 363.75 a9.53 9.53 0 1 0 19.06 0 a9.53 9.53 0 1 0 -19.06 0zM1194.77 407.21L1198.57 411.01L1228.15 381.44L1224.34 377.64zM1216.71 379.54 a9.53 9.53 0 1 0 19.06 0 a9.53 9.53 0 1 0 -19.06 0zM1217.93 439.97L1219.99 444.95L1261.92 427.58L1259.86 422.6zM1251.36 425.09 a9.53 9.53 0 1 0 19.06 0 a9.53 9.53 0 1 0 -19.06 0zM1021.14 481.8 a102.84 102.84 0 1 0 205.68 0 a102.84 102.84 0 1 0 -205.68 0z" fill="rgba(218, 37, 37, 0.35)"></path><path d="M1170.44 573.54 A101.8352 101.8352 0 0 1 1021.29 476.38M1021.29 476.38 A205.6704 205.6704 0 0 0 1170.44 573.54" fill="rgba(174, 30, 30, 0.35)" fill-rule="nonzero"></path><path d="M1164.26 533.87 a20.57 20.57 0 1 0 41.14 0 a20.57 20.57 0 1 0 -41.14 0zM1114.74 435.76 a20.57 20.57 0 1 0 41.14 0 a20.57 20.57 0 1 0 -41.14 0zM1116.21 490.85 a13.37 13.37 0 1 0 26.74 0 a13.37 13.37 0 1 0 -26.74 0zM1069.08 538.81 a20.57 20.57 0 1 0 41.14 0 a20.57 20.57 0 1 0 -41.14 0zM1177.31 469.17 a20.57 20.57 0 1 0 41.14 0 a20.57 20.57 0 1 0 -41.14 0zM1056.49 501.89 a5.14 5.14 0 1 0 10.28 0 a5.14 5.14 0 1 0 -10.28 0zM1128.12 557.84 a10.28 10.28 0 1 0 20.56 0 a10.28 10.28 0 1 0 -20.56 0zM1034.79 436.13 a17.48 17.48 0 1 0 34.96 0 a17.48 17.48 0 1 0 -34.96 0zM1077.28 403.9 a6.17 6.17 0 1 0 12.34 0 a6.17 6.17 0 1 0 -12.34 0zM1189.84 415.91 a5.14 5.14 0 1 0 10.28 0 a5.14 5.14 0 1 0 -10.28 0z" fill="rgba(174, 30, 30, 0.35)" fill-rule="nonzero"></path></g><defs><mask id="SvgjsMask1193"><rect width="2080" height="2080" fill="#ffffff"></rect></mask><linearGradient x1="100%" y1="0%" x2="0%" y2="100%" gradientUnits="userSpaceOnUse" id="SvgjsLinearGradient1194"><stop stop-color="#0e2a47" offset="0"></stop><stop stop-color="rgba(158, 0, 29, 1)" offset="1"></stop></linearGradient></defs></svg>